<?xml version="1.0" encoding="utf-8"?>
<!DOCTYPE svg PUBLIC "-//W3C//DTD SVG 1.1//EN" "http://www.w3.org/Graphics/SVG/1.1/DTD/svg11.dtd">
<svg id="svg-snowflake"
    xmlns="http://www.w3.org/2000/svg"
    xmlns:xlink="http://www.w3.org/1999/xlink"
    xml:space="preserve"
    width="200px"
    height="200px"
    style="shape-rendering: geometricPrecision;text-rendering: geometricPrecision;image-rendering: optimizeQuality;fill-rule: evenodd;clip-rule: evenodd;"
    viewBox="0 0 10860680 12107639">
    <defs>
        <style type="text/css">
            <![CDATA[
                .str0 {stroke:#FFF;stroke-width:35280}
                .fil0 {fill:#FFF}
            ]]>
        </style>
    </defs>
    <g id="Layer_x0020_1">
        <metadata id="CorelCorpID_0Corel-Layer"/>
        <path class="fil0 str0" d="M5119495 6592224l-7790 1442279 -915689 380360 197230 507150 655069 -295840 105650 359260 -1648248 922719 281760 464890 1141099 -591679 140870 436720 -922739 500110 309930 507150 612809 -345140 0 1208019c246500,2380 475290,2380 721789,0l0 -1208019 612809 345140 309930 -507150 -922739 -500110 140870 -436720 1141099 591679 281760 -464890 -1648248 -922719 105660 -359260 655059 295840 197230 -507150 -915689 -380360 -7790 -1442279 1245149 727879 -128440 983199 537820 82770 71340 -715219 363950 88120 -25030 1888788 543489 -11570 58130 -1284059 448650 96370 -28260 1049159 594169 -14820 7500 -703289 1046189 604019c125300,-212300 239690,-410420 360890,-625089l-1046179 -604009 605299 -358150 -284240 -521970 -894479 549049 -307770 -340360 1082959 -692369 -261730 -476450 -1623219 966059 -258290 -271120 583729 -419400 -340600 -424380 -787239 602829 -1252949 -714389 1252949 -714389 787239 602829 340600 -424380 -583729 -419380 258290 -271140 1623219 966059 261730 -476450 -1082959 -692369 307770 -340360 894479 549049 284240 -521970 -605299 -358150 1046179 -603999c-121200,-214680 -235590,-412800 -360890,-625099l-1046189 604019 -7500 -703289 -594169 -14820 28260 1049159 -448650 96370 -58130 -1284059 -543489 -11570 25030 1888788 -363950 88120 -71340 -715219 -537820 82770 128440 983199 -1245149 727879 7790 -1442279 915689 -380360 -197230 -507150 -655059 295840 -105660 -359250 1648248 -922729 -281760 -464890 -1141099 591679 -140870 -436720 922739 -500100 -309930 -507160 -612809 345140 0 -1208019c-246500,-2380 -475290,-2380 -721789,0l0 1208019 -612809 -345140 -309930 507160 922739 500100 -140870 436720 -1141099 -591679 -281760 464890 1648248 922729 -105650 359250 -655069 -295840 -197230 507150 915689 380360 7790 1442279 -1245149 -727879 128440 -983199 -537820 -82770 -71340 715219 -363950 -88120 25030 -1888788 -543489 11570 -58130 1284059 -448650 -96370 28260 -1049159 -594169 14820 -7500 703289 -1046189 -604019c-125300,212300 -239690,410420 -360890,625099l1046179 603999 -605299 358150 284240 521970 894479 -549049 307770 340360 -1082959 692369 261730 476450 1623219 -966059 258290 271120 -583729 419400 340600 424380 787239 -602829 1252949 714389 -1252949 714389 -787239 -602829 -340600 424380 583729 419390 -258290 271130 -1623219 -966059 -261730 476450 1082959 692369 -307770 340360 -894479 -549049 -284240 521970 605299 358150 -1046179 604009c121200,214670 235590,412790 360890,625089l1046189 -604019 7500 703289 594169 14820 -28260 -1049159 448650 -96370 58130 1284059 543489 11570 -25030 -1888788 363950 -88120 71340 715219 537820 -82770 -128440 -983199 1245149 -727879z"/>
    </g>
</svg>